<?xml version="1.0" encoding="UTF-8" standalone="no"?> <svg id="Layer_1" data-name="Layer 1" xmlns="http://www.w3.org/2000/svg" viewBox="0 0 512 512"><defs><style>.cls-1{fill:#efeae6;}.cls-2{fill:#ffd38d;}.cls-3{fill:#6d4135;}</style></defs><title>pad-pencil-filled</title><rect class="cls-1" x="21.23" y="108.71" width="382.09" height="382.06"/><path class="cls-2" d="M413.93,34.42,212.27,236.06v63.68H276L477.62,98.1a45,45,0,0,0,0-63.68h0A45,45,0,0,0,413.93,34.42Z"/><path class="cls-1" d="M477.62,98.1l-37.15,37.15L376.79,71.56l37.15-37.15A45,45,0,0,1,477.62,98.1Z"/><path class="cls-3" d="M492.62,19.41a66.32,66.32,0,0,0-93.7,0L361.78,56.56h0L330.85,87.48H21.23A21.23,21.23,0,0,0,0,108.71V490.77A21.23,21.23,0,0,0,21.23,512H403.32a21.23,21.23,0,0,0,21.23-21.23V181.18l51-51h0l17.09-17.08A66.32,66.32,0,0,0,492.62,19.41Zm-63.68,30c9-9,24.7-9,33.67,0a23.84,23.84,0,0,1,0,33.66l-6.67,6.67h0l-15.46,15.46L406.81,71.56Zm-18.49,85.81L267.16,278.52H233.5V244.85L376.79,101.58ZM382.09,469.55H42.45V129.94H288.39l-91.13,91.12a21.23,21.23,0,0,0-6.22,15v63.68A21.23,21.23,0,0,0,212.27,321H276a21.23,21.23,0,0,0,15-6.22l91.13-91.12Z"/></svg>