<svg width="24" height="24" viewBox="0 0 24 24" fill="none" xmlns="http://www.w3.org/2000/svg">
<g id="right (1) 1">
<g id="15">
<path id="Vector" d="M15 4.99981C15.1987 4.99866 15.3931 5.05668 15.5587 5.16648C15.7242 5.27628 15.8532 5.43289 15.9294 5.61633C16.0056 5.79978 16.0254 6.00175 15.9863 6.19649C15.9473 6.39124 15.8511 6.56994 15.71 6.70981L10.41 11.9998L15.71 17.2898C15.8983 17.4781 16.0041 17.7335 16.0041 17.9998C16.0041 18.1317 15.9782 18.2622 15.9277 18.3841C15.8772 18.5059 15.8033 18.6166 15.71 18.7098C15.6168 18.8031 15.5061 18.877 15.3843 18.9275C15.2625 18.9779 15.1319 19.0039 15 19.0039C14.7337 19.0039 14.4783 18.8981 14.29 18.7098L8.29004 12.7098C8.10379 12.5225 7.99925 12.269 7.99925 12.0048C7.99925 11.7406 8.10379 11.4872 8.29004 11.2998L14.29 5.29981C14.3827 5.20532 14.4931 5.13016 14.615 5.07866C14.7369 5.02716 14.8677 5.00036 15 4.99981Z" fill="white"/>
</g>
</g>
</svg>
